<svg xmlns="http://www.w3.org/2000/svg" viewBox="0 0 100 100">
<g transform="rotate(-14 62 25)">
<path d="M60.8 26.5 C59.6 29.4 58.2 31.8 56.6 33.8 L60.2 33.4 L61.8 35.6 C62.3 32.6 62.8 29.4 63.2 26.6 Z" fill="#FF6FAE" stroke="#2B2A5E" stroke-width="2.2" stroke-linejoin="round" stroke-linecap="round"/>
<path d="M62 25 C57 18.5 49.5 17 48.5 21.5 C47.5 26.5 54 30.5 62 25 Z" fill="#FF6FAE" stroke="#2B2A5E" stroke-width="2.5" stroke-linejoin="round" stroke-linecap="round"/>
<path d="M62 25 C67 18.5 74.5 17 75.5 21.5 C76.5 26.5 70 30.5 62 25 Z" fill="#FF6FAE" stroke="#2B2A5E" stroke-width="2.5" stroke-linejoin="round" stroke-linecap="round"/>
<path d="M57.6 24.2 C55.6 23.2 53.6 22.6 51.8 22.8" fill="none" stroke="#2B2A5E" stroke-width="1.5" stroke-linejoin="round" stroke-linecap="round"/>
<path d="M66.4 24.2 C68.4 23.2 70.4 22.6 72.2 22.8" fill="none" stroke="#2B2A5E" stroke-width="1.5" stroke-linejoin="round" stroke-linecap="round"/>
<ellipse cx="62" cy="25" rx="3.4" ry="3.9" fill="#FF6FAE" stroke="#2B2A5E" stroke-width="2.5" stroke-linejoin="round" stroke-linecap="round"/>
<ellipse cx="52" cy="20.6" rx="1.2" ry="2.2" transform="rotate(40 52 20.6)" fill="#FFFFFF" opacity=".6"/>
</g>
</svg>
