<svg xmlns="http://www.w3.org/2000/svg" viewBox="0 0 100 100">
<path d="M50 27 C56.5 26.5 62 27 66.5 28.5 C68.5 22 71.5 15 74 12.5 C75.8 11 77.4 12 77.8 14.5 C78.8 20.5 79.2 27 78.6 33.5 C81.4 41.5 82.2 51 81.6 61 C80.8 77.5 72.5 88.5 50.5 88 C28 88.5 19.2 78 18.6 61.5 C18.2 51 19.4 41.5 22.2 33.5 C21.4 27 21.8 20.5 23 14.8 C23.6 12 25.4 11 27.2 12.6 C29.8 15 32.2 22 34 28.5 C38.5 27 44 26.5 50 27 Z" fill="#FFB3D1" stroke="#2B2A5E" stroke-width="3" stroke-linejoin="round" stroke-linecap="round"/>
<path d="M25.6 18.5 C27.4 20.6 29.2 24.6 30.4 28.8 C28.6 29.8 26.8 31 25.2 32.2 C24.7 27.4 24.8 22.4 25.6 18.5 Z" fill="#FFF3C4"/>
<path d="M74.4 18.5 C72.6 20.6 70.8 24.6 69.6 28.8 C71.4 29.8 73.2 31 74.8 32.2 C75.3 27.4 75.2 22.4 74.4 18.5 Z" fill="#FFF3C4"/>
<ellipse cx="29" cy="42" rx="3.2" ry="6.5" transform="rotate(30 29 42)" fill="#FFFFFF" opacity=".45"/>
</svg>
