<svg xmlns="http://www.w3.org/2000/svg" viewBox="0 0 100 100" data-face="50 67">
<path d="M31.5 46 C29.5 58 26.5 71 27.5 82.5 C28 87.5 38.5 88.6 50 88.5 C61.5 88.6 72 87.5 72.5 82.5 C73.5 71 70.5 58 68.5 46 Z" fill="#FFF3C4" stroke="#2B2A5E" stroke-width="3" stroke-linejoin="round" stroke-linecap="round"/>
<path d="M10 47.5 C9 33 26.5 22.5 50 22.5 C73.5 22.5 91.5 33 90 47.5 C89.6 51.5 86 53.2 82 52.8 C66 51 34 51 18 52.8 C14 53.2 10.4 51.5 10 47.5 Z" fill="#FFB3D1" stroke="#2B2A5E" stroke-width="3" stroke-linejoin="round" stroke-linecap="round"/>
<circle cx="29" cy="36" r="5.2" fill="#FFF3C4"/>
<circle cx="55" cy="30.5" r="4" fill="#FFF3C4"/>
<circle cx="73" cy="40" r="4.4" fill="#FFF3C4"/>
<circle cx="45" cy="44" r="2.6" fill="#FFF3C4"/>
<circle cx="83" cy="44.5" r="2" fill="#FFF3C4"/>
<ellipse cx="19" cy="40" rx="2.6" ry="5.5" transform="rotate(50 19 40)" fill="#FFFFFF" opacity=".45"/>
</svg>
