<svg xmlns="http://www.w3.org/2000/svg" viewBox="0 0 100 100">
<g transform="rotate(-6 80 66)">
<path d="M69.5 54.5 L88 54.5 L92 58.5 L92 76.5 C92 77.4 91.4 78 90.5 78 L69.5 78 C68.6 78 68 77.4 68 76.5 L68 56 C68 55.2 68.7 54.5 69.5 54.5 Z" fill="#A9DCFF" stroke="#2B2A5E" stroke-width="2.5" stroke-linejoin="round" stroke-linecap="round"/>
<rect x="73" y="54.5" width="13" height="8" rx="1" fill="#FFFDF8" stroke="#2B2A5E" stroke-width="2" stroke-linejoin="round" stroke-linecap="round"/>
<rect x="81.2" y="56.4" width="2.6" height="4.2" rx=".6" fill="#3B4CCA"/>
<rect x="71.5" y="65.5" width="17" height="11" rx="1.4" fill="#FFFDF8" stroke="#2B2A5E" stroke-width="2" stroke-linejoin="round" stroke-linecap="round"/>
<path d="M76.6 68.6 L74.6 71 L76.6 73.4 M83.4 68.6 L85.4 71 L83.4 73.4 M81 68.4 L79 73.6" fill="none" stroke="#2B2A5E" stroke-width="1.6" stroke-linejoin="round" stroke-linecap="round"/>
</g>
</svg>
